<svg width="60" height="60" viewBox="0 0 60 60" fill="none" xmlns="http://www.w3.org/2000/svg">
<path d="M7.5 30C7.5 17.5736 17.5736 7.5 30 7.5C42.4264 7.5 52.5 17.5736 52.5 30C52.5 42.4264 42.4264 52.5 30 52.5C17.5736 52.5 7.5 42.4264 7.5 30Z" fill="#475B6C"/>
<circle cx="30" cy="25" r="10" fill="white"/>
<path fill-rule="evenodd" clip-rule="evenodd" d="M46.2071 46.8306C46.2531 46.9272 46.231 47.0422 46.1528 47.1152C43.0302 50.0329 38.9688 51.9597 34.4604 52.4037C33.4826 52.5 32.3218 52.5 30.0001 52.5C27.6784 52.5 26.5175 52.5 25.5397 52.4037C21.0314 51.9597 16.9701 50.033 13.8475 47.1154C13.7694 47.0424 13.7472 46.9274 13.7933 46.8308C16.4021 41.357 22.6757 37.5 30.0002 37.5C37.3247 37.5 43.5982 41.3569 46.2071 46.8306Z" fill="white"/>
</svg>
